<svg width="460" height="401" xmlns="http://www.w3.org/2000/svg">
 <!-- Created with Method Draw - http://github.com/duopixel/Method-Draw/ -->

 <g>
  <title>background</title>
  <rect fill="none" id="canvas_background" height="403" width="462" y="-1" x="-1"/>
  <g display="none" overflow="visible" y="0" x="0" height="100%" width="100%" id="canvasGrid">
   <rect fill="url(#gridpattern)" stroke-width="0" y="1" x="1" height="400" width="580"/>
  </g>
 </g>
 <g>
  <title>Layer 1</title>
  <g stroke="null" id="svg_26">
   <g stroke="null" transform="matrix(0.7823438405433996,0,0,0.7823438405433996,-4157.793889444565,-2934.484180541395) " id="svg_5">
    <g stroke="null" id="svg_6">
     <g stroke="null" id="svg_7">
      <circle fill="#f7f7f7" stroke="null" id="svg_8" r="48.848" cy="4044.244137" cx="5607.242748"/>
      <path fill="#f7f7f7" stroke="null" id="svg_9" d="m5732.155748,3919.338137c-33.368,-33.368 -77.729,-51.744 -124.912,-51.744s-91.541,18.376 -124.9,51.744c-33.368,33.36 -51.745,77.729 -51.745,124.901c0,47.184 18.376,91.541 51.745,124.908c15.078,15.059 39.515,15.068 54.59,-0.01c15.07,-15.078 15.07,-39.514 -0.008,-54.59c-18.78,-18.773 -29.127,-43.744 -29.127,-70.312c0,-26.557 10.347,-51.527 29.135,-70.318c18.773,-18.782 43.744,-29.129 70.311,-29.129c26.564,0 51.54,10.347 70.32,29.129c18.781,18.791 29.127,43.762 29.127,70.318c0,26.564 -10.346,51.539 -29.127,70.312c-15.078,15.076 -15.078,39.512 -0.01,54.59c7.539,7.537 17.424,11.307 27.299,11.307c9.877,0 19.754,-3.77 27.291,-11.297c33.369,-33.367 51.746,-77.729 51.746,-124.908c-0.001,-47.172 -18.376,-91.542 -51.735,-124.901z"/>
      <path fill="#f7f7f7" stroke="null" id="svg_10" d="m5810.239748,3841.255137c-111.934,-111.933 -294.055,-111.933 -405.988,0c-111.934,111.925 -111.934,294.056 0,405.978c15.059,15.078 39.522,15.078 54.582,0c15.077,-15.068 15.077,-39.512 0,-54.582c-39.636,-39.645 -61.47,-92.352 -61.47,-148.4c0,-56.064 21.834,-108.768 61.47,-148.413c81.834,-81.836 214.989,-81.836 296.824,0c39.637,39.646 61.471,92.352 61.471,148.413c0,56.051 -21.834,108.756 -61.472,148.4c-15.077,15.07 -15.077,39.516 0,54.582c7.529,7.539 17.416,11.309 27.291,11.309c9.878,0 19.763,-3.77 27.291,-11.309c111.934,-111.921 111.934,-294.055 0.001,-405.978z"/>
     </g>
    </g>
   </g>
   <g stroke="null" transform="matrix(0.7823438405433996,0,0,0.7823438405433996,-4157.793889444565,-2934.484180541395) " id="svg_11"/>
   <g stroke="null" transform="matrix(0.7823438405433996,0,0,0.7823438405433996,-4157.793889444565,-2934.484180541395) " id="svg_12"/>
   <g stroke="null" transform="matrix(0.7823438405433996,0,0,0.7823438405433996,-4157.793889444565,-2934.484180541395) " id="svg_13"/>
   <g stroke="null" transform="matrix(0.7823438405433996,0,0,0.7823438405433996,-4157.793889444565,-2934.484180541395) " id="svg_14"/>
   <g stroke="null" transform="matrix(0.7823438405433996,0,0,0.7823438405433996,-4157.793889444565,-2934.484180541395) " id="svg_15"/>
   <g stroke="null" transform="matrix(0.7823438405433996,0,0,0.7823438405433996,-4157.793889444565,-2934.484180541395) " id="svg_16"/>
   <g stroke="null" transform="matrix(0.7823438405433996,0,0,0.7823438405433996,-4157.793889444565,-2934.484180541395) " id="svg_17"/>
   <g stroke="null" transform="matrix(0.7823438405433996,0,0,0.7823438405433996,-4157.793889444565,-2934.484180541395) " id="svg_18"/>
   <g stroke="null" transform="matrix(0.7823438405433996,0,0,0.7823438405433996,-4157.793889444565,-2934.484180541395) " id="svg_19"/>
   <g stroke="null" transform="matrix(0.7823438405433996,0,0,0.7823438405433996,-4157.793889444565,-2934.484180541395) " id="svg_20"/>
   <g stroke="null" transform="matrix(0.7823438405433996,0,0,0.7823438405433996,-4157.793889444565,-2934.484180541395) " id="svg_21"/>
   <g stroke="null" transform="matrix(0.7823438405433996,0,0,0.7823438405433996,-4157.793889444565,-2934.484180541395) " id="svg_22"/>
   <g stroke="null" transform="matrix(0.7823438405433996,0,0,0.7823438405433996,-4157.793889444565,-2934.484180541395) " id="svg_23"/>
   <g stroke="null" transform="matrix(0.7823438405433996,0,0,0.7823438405433996,-4157.793889444565,-2934.484180541395) " id="svg_24"/>
   <g stroke="null" transform="matrix(0.7823438405433996,0,0,0.7823438405433996,-4157.793889444565,-2934.484180541395) " id="svg_25"/>
  </g>
 </g>
</svg>