<svg width="431" height="564" xmlns="http://www.w3.org/2000/svg">
 <!-- Created with Method Draw - http://github.com/duopixel/Method-Draw/ -->

 <g>
  <title>background</title>
  <rect fill="none" id="canvas_background" height="566" width="433" y="-1" x="-1"/>
  <g display="none" overflow="visible" y="0" x="0" height="100%" width="100%" id="canvasGrid">
   <rect fill="url(#gridpattern)" stroke-width="0" y="1" x="1" height="600" width="800"/>
  </g>
 </g>
 <g>
  <title>Layer 1</title>
  <g stroke="null" id="svg_22">
   <g stroke="null" transform="rotate(21 172.45474243164045,297.9996032714844) matrix(0.9443941962095358,0,0,0.9443941962095358,-2961.4273573336636,-1947.906052243433) " id="svg_5">
    <path fill="#17354f" stroke-width="0" stroke="null" id="svg_6" d="m3298.76805,2679.29221l195.851,-325.636c7.954,-13.225 -1.571,-30.069 -17.003,-30.069l-130.775,0l144.899,-220.711c8.663,-13.195 -0.803,-30.732 -16.587,-30.732l-225.322,0c-8.806,0 -16.558,5.804 -19.039,14.253l-90.655,308.81c-3.73,12.706 5.796,25.431 19.039,25.431l176.915,0l-55.512,251.4c-2.424,10.978 12.396,16.887 18.189,7.254z"/>
   </g>
   <g stroke="null" transform="matrix(0.9443941962095358,0,0,0.9443941962095358,-2961.4273573336636,-1947.906052243433) " id="svg_7"/>
   <g stroke="null" transform="matrix(0.9443941962095358,0,0,0.9443941962095358,-2961.4273573336636,-1947.906052243433) " id="svg_8"/>
   <g stroke="null" transform="matrix(0.9443941962095358,0,0,0.9443941962095358,-2961.4273573336636,-1947.906052243433) " id="svg_9"/>
   <g stroke="null" transform="matrix(0.9443941962095358,0,0,0.9443941962095358,-2961.4273573336636,-1947.906052243433) " id="svg_10"/>
   <g stroke="null" transform="matrix(0.9443941962095358,0,0,0.9443941962095358,-2961.4273573336636,-1947.906052243433) " id="svg_11"/>
   <g stroke="null" transform="matrix(0.9443941962095358,0,0,0.9443941962095358,-2961.4273573336636,-1947.906052243433) " id="svg_12"/>
   <g stroke="null" transform="matrix(0.9443941962095358,0,0,0.9443941962095358,-2961.4273573336636,-1947.906052243433) " id="svg_13"/>
   <g stroke="null" transform="matrix(0.9443941962095358,0,0,0.9443941962095358,-2961.4273573336636,-1947.906052243433) " id="svg_14"/>
   <g stroke="null" transform="matrix(0.9443941962095358,0,0,0.9443941962095358,-2961.4273573336636,-1947.906052243433) " id="svg_15"/>
   <g stroke="null" transform="matrix(0.9443941962095358,0,0,0.9443941962095358,-2961.4273573336636,-1947.906052243433) " id="svg_16"/>
   <g stroke="null" transform="matrix(0.9443941962095358,0,0,0.9443941962095358,-2961.4273573336636,-1947.906052243433) " id="svg_17"/>
   <g stroke="null" transform="matrix(0.9443941962095358,0,0,0.9443941962095358,-2961.4273573336636,-1947.906052243433) " id="svg_18"/>
   <g stroke="null" transform="matrix(0.9443941962095358,0,0,0.9443941962095358,-2961.4273573336636,-1947.906052243433) " id="svg_19"/>
   <g stroke="null" transform="matrix(0.9443941962095358,0,0,0.9443941962095358,-2961.4273573336636,-1947.906052243433) " id="svg_20"/>
   <g stroke="null" transform="matrix(0.9443941962095358,0,0,0.9443941962095358,-2961.4273573336636,-1947.906052243433) " id="svg_21"/>
  </g>
 </g>
</svg>